Coordinates
version=1
nRows=25
nColumns=33
inDegrees=yes

Units are S.I. units (second, meters, Newtons, ...)
Angles are in degrees.

endheader
time	ground_thorax_rot_x	ground_thorax_rot_y	ground_thorax_rot_z	ground_thorax_tx	ground_thorax_ty	ground_thorax_tz	clav_prot_r	clav_elev_r	scapula_abduction_r	scapula_elevation_r	scapula_upward_rot_r	scapula_winging_r	shoulder_elv_r	plane_of_elev_r	axial_rot_r	elbow_flexion_r	pro_sup_r	wrist_flex_r	wrist_dev_r	clav_prot_l	clav_elev_l	scapula_abduction_l	scapula_elevation_l	scapula_upward_rot_l	scapula_winging_l	shoulder_elv_l	plane_of_elev_l	axial_rot_l	elbow_flexion_l	pro_sup_l	wrist_flex_l	wrist_dev_l	
5.6800	-37.673761	-11.676953	20.735943	-265.248551	828.585349	10.741000	7.071496	-45.000000	36.681239	-45.000000	-41.588643	2056.139927	-2627.226727	146.521493	-116.389954	1096.033018	57.795713	15.167500	2.058491	13.442021	36.869511	-32.900798	-45.000000	-45.000000	-2075.445043	987.973740	135.648982	-180.000000	732.209681	51.197843	1.217636	-19.953053	
5.6900	-37.673399	-11.703862	20.771440	-265.191314	828.376627	10.810875	7.015621	-45.000000	36.606972	-45.000000	-41.808067	2056.145534	-2627.217609	146.466505	-116.459066	1096.129271	58.573912	15.061434	1.940240	13.424146	36.862434	-32.914225	-45.000000	-45.000000	-2075.449756	987.952956	135.650816	-180.000000	732.292453	52.015332	1.107318	-19.893867	
5.7000	-37.681122	-11.718571	20.805135	-265.120480	828.172166	10.878340	6.947588	-45.000000	36.501198	-45.000000	-42.059143	2056.145681	-2627.213331	146.394517	-116.497249	1096.212299	59.347087	14.932046	1.723011	13.378891	36.847885	-32.953948	-45.000000	-45.000000	-2075.447328	987.915456	135.660351	-180.000000	732.369459	52.799201	0.987661	-19.835034	
5.7100	-37.687754	-11.739228	20.826229	-265.018126	827.976627	10.941680	6.921022	-45.000000	36.449635	-45.000000	-42.202467	2056.148142	-2627.215831	146.357993	-116.555912	1096.298707	60.116357	14.835635	1.621410	13.358679	36.838390	-32.971397	-45.000000	-45.000000	-2075.454182	987.888893	135.665090	-180.000000	732.447201	53.510139	0.889984	-19.773445	
5.7200	-37.692548	-11.768212	20.846325	-264.885123	827.790791	10.999381	6.907660	-45.000000	36.424555	-45.000000	-42.288449	2056.153411	-2627.219212	146.339212	-116.613968	1096.387733	60.878628	14.758256	1.574481	13.353861	36.834927	-32.971242	-45.000000	-45.000000	-2075.465815	987.871794	135.662903	-180.000000	732.520879	54.146477	0.806966	-19.712801	
5.7300	-37.702719	-11.789507	20.854224	-264.720240	827.615902	11.049766	6.913442	-45.000000	36.412446	-45.000000	-42.325833	2056.155963	-2627.229529	146.327483	-116.670772	1096.469631	61.630487	14.686321	1.542707	13.345137	36.827166	-32.982057	-45.000000	-45.000000	-2075.478901	987.847131	135.664639	-180.000000	732.590757	54.700318	0.735173	-19.652620	
5.7400	-37.713106	-11.819036	20.862543	-264.527268	827.452068	11.091359	6.919736	-45.000000	36.411856	-45.000000	-42.331306	2056.159916	-2627.236325	146.320840	-116.722261	1096.556337	62.374981	14.627785	1.543927	13.346099	36.825483	-32.981801	-45.000000	-45.000000	-2075.493513	987.831057	135.662143	-180.000000	732.654857	55.178257	0.675930	-19.596771	
5.7500	-37.728539	-11.845487	20.865740	-264.311854	827.298731	11.123035	6.925699	-45.000000	36.407526	-45.000000	-42.328450	2056.164047	-2627.243824	146.310039	-116.766411	1096.634656	63.107585	14.563482	1.518367	13.339697	36.818461	-32.994622	-45.000000	-45.000000	-2075.503046	987.808498	135.661847	-180.000000	732.709923	55.586576	0.621847	-19.542032	
5.7600	-37.743404	-11.880427	20.872017	-264.078729	827.155290	11.143980	6.926820	-45.000000	36.408135	-45.000000	-42.312571	2056.169510	-2627.243157	146.299528	-116.805669	1096.721605	63.827016	14.514312	1.520610	13.344018	36.821385	-32.992769	-45.000000	-45.000000	-2075.514960	987.800392	135.657205	-180.000000	732.759850	55.932928	0.577460	-19.493102	
5.7700	-37.761872	-11.913606	20.874978	-263.831476	827.021050	11.153694	6.927743	-45.000000	36.410691	-45.000000	-42.289718	2056.175486	-2627.242573	146.291875	-116.843536	1096.803013	64.527717	14.460841	1.501660	13.346185	36.818789	-32.997278	-45.000000	-45.000000	-2075.519418	987.789364	135.649964	-180.000000	732.802178	56.221526	0.537046	-19.444274	
5.7800	-37.782434	-11.944647	20.877883	-263.572451	826.895324	11.151910	6.928890	-45.000000	36.410397	-45.000000	-42.257634	2056.180385	-2627.239961	146.279135	-116.876793	1096.888569	65.211938	14.420552	1.504065	13.350080	36.825763	-32.999736	-45.000000	-45.000000	-2075.531939	987.789380	135.647189	-180.000000	732.839150	56.460777	0.503997	-19.402217	
5.7900	-37.803138	-11.977679	20.883767	-263.302718	826.777331	11.138558	6.926160	-45.000000	36.417319	-45.000000	-42.216325	2056.190178	-2627.238009	146.274167	-116.913243	1096.966730	65.878257	14.374412	1.490136	13.357706	36.827602	-33.001341	-45.000000	-45.000000	-2075.536999	987.791194	135.635368	-180.000000	732.862668	56.656018	0.474946	-19.358807	
5.8000	-37.826145	-12.004875	20.888929	-263.022344	826.666320	11.113766	6.925100	-45.000000	36.421802	-45.000000	-42.165170	2056.197469	-2627.236337	146.263102	-116.949325	1097.048450	66.529803	14.337054	1.489230	13.362961	36.834486	-33.007828	-45.000000	-45.000000	-2075.545463	987.796256	135.629712	-180.000000	732.884387	56.813879	0.450323	-19.321251	
5.8100	-37.848121	-12.039690	20.900395	-262.730594	826.561580	11.077889	6.915901	-45.000000	36.441064	-45.000000	-42.102425	2056.209294	-2627.234150	146.266054	-116.995231	1097.128598	67.166374	14.289878	1.469511	13.376727	36.832149	-33.006985	-45.000000	-45.000000	-2075.535438	987.801715	135.609454	-180.000000	732.900959	56.940344	0.426934	-19.281860	
5.8200	-37.874211	-12.064709	20.907749	-262.426180	826.462559	11.031554	6.911208	-45.000000	36.454715	-45.000000	-42.028147	2056.217524	-2627.233644	146.258063	-117.044313	1097.211143	67.794528	14.249380	1.458175	13.383378	36.832665	-33.017587	-45.000000	-45.000000	-2075.526436	987.807291	135.600689	-180.000000	732.922278	57.042458	0.405150	-19.248388	
5.8300	-37.894747	-12.101569	20.928876	-262.107613	826.369095	10.975682	6.898046	-45.000000	36.482421	-45.000000	-41.939517	2056.230368	-2627.228654	146.264496	-117.106425	1097.291927	68.408912	14.202521	1.435980	13.400971	36.829258	-33.017193	-45.000000	-45.000000	-2075.507408	987.813736	135.583495	-180.000000	732.932633	57.125327	0.385544	-19.213303	
5.8400	-37.917821	-12.120011	20.943056	-261.773073	826.281524	10.911412	6.895019	-45.000000	36.497640	-45.000000	-41.839961	2056.237766	-2627.225901	146.253047	-117.172460	1097.372779	69.007365	14.166499	1.423940	13.407091	36.829321	-33.033375	-45.000000	-45.000000	-2075.495165	987.819330	135.578097	-180.000000	732.952026	57.190527	0.366618	-19.184981	
5.8500	-37.936366	-12.138378	20.963566	-261.420416	826.200749	10.840045	6.888236	-45.000000	36.521620	-45.000000	-41.727984	2056.247680	-2627.218157	146.246219	-117.250241	1097.451442	69.585593	14.128045	1.404818	13.419460	36.827439	-33.043868	-45.000000	-45.000000	-2075.480072	987.830708	135.566338	-180.000000	732.971584	57.241803	0.348598	-19.159042	
5.8600	-37.954701	-12.140717	20.981367	-261.047054	826.128193	10.762923	6.890612	-45.000000	36.538272	-45.000000	-41.605874	2056.253266	-2627.210240	146.223914	-117.332948	1097.526278	70.143990	14.101117	1.395469	13.419993	36.829035	-33.075876	-45.000000	-45.000000	-2075.469285	987.835183	135.569691	-180.000000	733.008382	57.280139	0.328956	-19.139057	
5.8700	-37.967237	-12.141723	21.005396	-260.649803	826.065570	10.681349	6.889524	-45.000000	36.562881	-45.000000	-41.470825	2056.261686	-2627.197418	146.205200	-117.428363	1097.596829	70.679266	14.071401	1.379869	13.427365	36.830303	-33.101419	-45.000000	-45.000000	-2075.462470	987.847027	135.565958	-180.000000	733.042723	57.309932	0.310760	-19.122306	
5.8800	-37.978057	-12.135636	21.028695	-260.224858	826.014614	10.596482	6.890722	-45.000000	36.589622	-45.000000	-41.329450	2056.271316	-2627.183492	146.178981	-117.528181	1097.668598	71.194320	14.052511	1.369448	13.432920	36.832664	-33.134302	-45.000000	-45.000000	-2075.452629	987.858923	135.559062	-180.000000	733.086961	57.331626	0.290945	-19.108024	
5.8900	-37.985520	-12.131135	21.060511	-259.768246	825.976797	10.509340	6.885963	-45.000000	36.633642	-45.000000	-41.180272	2056.286604	-2627.169248	146.165033	-117.639424	1097.737253	71.687895	14.031641	1.353263	13.446879	36.834768	-33.162794	-45.000000	-45.000000	-2075.448935	987.878077	135.545930	-180.000000	733.115179	57.349685	0.274250	-19.094911	
5.9000	-37.991504	-12.126827	21.098441	-259.275514	825.953031	10.420684	6.882579	-45.000000	36.683349	-45.000000	-41.026298	2056.303179	-2627.155104	146.149792	-117.753901	1097.808748	72.163067	14.023484	1.341755	13.457964	36.837025	-33.203889	-45.000000	-45.000000	-2075.440371	987.889712	135.533637	-180.000000	733.142720	57.363474	0.256249	-19.080199	
5.9100	-37.993859	-12.122400	21.141759	-258.742551	825.943557	10.331101	6.877079	-45.000000	36.741541	-45.000000	-40.863469	2056.323267	-2627.140989	146.138504	-117.877172	1097.878110	72.619601	14.015549	1.326333	13.472489	36.840087	-33.244064	-45.000000	-45.000000	-2075.442835	987.906592	135.518194	-180.000000	733.156162	57.375775	0.240626	-19.067263	
5.9200	-37.993242	-12.120103	21.190079	-258.165236	825.947842	10.240930	6.875381	-45.000000	36.800195	-45.000000	-40.694741	2056.343801	-2627.124539	146.118896	-118.001998	1097.948736	73.060000	14.021291	1.315792	13.483329	36.842397	-33.292895	-45.000000	-45.000000	-2075.436601	987.919280	135.499982	-180.000000	733.179571	57.384075	0.221344	-19.053685	
